/* XPM */
static char * usb_key_copy_con_xpm[] = {
"32 32 28 1",
" 	c None",
".	c #868F91",
"+	c #D5E2E4",
"@	c #C2D2D7",
"#	c #B6C6CD",
"$	c #66787D",
"%	c #ADBDC4",
"&	c #A3B4C0",
"*	c #96A2AF",
"=	c #9BABB8",
"-	c #8885A1",
";	c #AFAFC7",
">	c #A9A4C2",
",	c #9D9ABE",
"'	c #9B93B8",
")	c #978FB3",
"!	c #B1ACC9",
"~	c #A29EBC",
"{	c #B1B3AF",
"]	c #918CB6",
"^	c #8E8AB3",
"/	c #8E82AD",
"(	c #15CA00",
"_	c #897DA8",
":	c #8178A8",
"<	c #8071A2",
"[	c #74699F",
"}	c #7B6D9E",
"                                ",
"                                ",
"                                ",
"                                ",
" .......     .......    ....... ",
" ++@@@##     +@@@###    +@@@### ",
" @$$%$$&     @$$%$$*    @$$%$$& ",
" %$$&$$=     %$$&$$=    %$$&$$= ",
" &&==***     &==****    &==**** ",
" *******-   -*******   -******* ",
";;;>>,'')   ;;!>~''))  ;;!>~''))",
";;!{{{))]   ;!>{{{')^  ;!>{{{))^",
";!>{{{))^   ;>>{{{)^^  ;>>{{{)^^",
";!>{{{]]/   !>~{{{]//  !>~{{{]//",
"!>>(((^^/   >>~{{{^//  >>~{{{^//",
"!>~(((///   >~,{{{^/_  >~,{{{//_",
">>~(((//_   >~,{{{^/_  >~,{{{//_",
">~,(((//_   ~,,(((/_:  ~,,{{{/_:",
"~,,(((__:   ~,'(((/::  ~,'{{{_::",
"~,'(((__:   ,')(((_:<  ,'){{{_:<",
",,'(((:::   ,')(((_:<  ,'){{{::<",
"'')(((<<<   '))(((:<<  '))(((<<<",
"'')(((<<<   ')^(((<<[  ')^(((<<[",
"'))(((<<}   ')^(((<<[  ')^(((<<[",
"')^(((<<[   )^/(((<}[  )^/(((<}[",
"))^(((}}[   )^/(((<[[  )^/(((}[[",
"]^/_::<[[   ^//:<<}[[  ^//:<<[[[",
"]^/_::<[[   ^//:<<}[[  ^//:<<[[[",
"                                ",
"                                ",
"                                ",
"                                "};
