/* XPM */
static char * usb_stick_icon_xpm[] = {
"39 100 33 1",
" 	c None",
".	c #4B6165",
"+	c #696B68",
"@	c #74699F",
"#	c #7B6D9E",
"$	c #66787D",
"%	c #8071A2",
"&	c #8178A8",
"*	c #897DA8",
"=	c #8E82AD",
"-	c #8885A1",
";	c #868F91",
">	c #8E8AB3",
",	c #918CB6",
"'	c #8E8FA4",
")	c #978FB3",
"!	c #15CA00",
"~	c #9692AF",
"{	c #9B93B8",
"]	c #9D9ABE",
"^	c #96A2AF",
"/	c #A29EBC",
"(	c #A9A4C2",
"_	c #9BABB8",
":	c #9EAEB4",
"<	c #B1ACC9",
"[	c #AFAFC7",
"}	c #A3B4C0",
"|	c #B1B3AF",
"1	c #ADBDC4",
"2	c #B6C6CD",
"3	c #C2D2D7",
"4	c #D5E2E4",
"       |;;;;;;;;;;;;;;;;;;;;;;;:       ",
"      43;;;;;;;;;;;;;;;;;;;;;;;:3      ",
"      4444444444444333333333333332     ",
"     44444444444333333333333332222     ",
"     44444443333333333333322222222     ",
"     44443333333333333322222222222     ",
"     44433333333333322222222222111     ",
"     343333:;;;:2222222:;;;^111111     ",
"     34333......$22222$.....$11111     ",
"     34331.......12221$.$$$$$^}}}}     ",
"     34321......$11111$$$$$$$^}}}}     ",
"     24321$$$$$$$11111$$$$$$$_}}}}     ",
"     24222;$$$$$^11111:$$$$$;}}___     ",
"     2421111::::1}}}}}}___________     ",
"     14211111}11}}}}}}}}}_________     ",
"     142111}}}}}}}}}}}_________^^^     ",
"     }41}}}}}}}}}}_________^^_^^^^     ",
"     }41}}}}}}___________^^^^^^^^^     ",
"     }4}}}}_________^^^^^^^^^^^^^^     ",
"     }4}_________^^^^^^^^^^^^^^^^^     ",
"    ~^4}_______^^^^^^^^^^^^^^^^^^^-    ",
" /---'2___^^^^^^^^^^^^^^^^^^^^^^^'---) ",
" -----'^^^^^^^^^^^^^^^^^^^^^^^^^'----- ",
"[[-------''''''''''''''''''''''------))",
"[[[[////////~~~~~~~~~~~~~~~~~~~~-))))))",
"[[[[[[[[[<<<<((((((/////]]]{{{{{{)))),)",
"[[[[[[[[[<<<<((((((///]]]{{]{{{{{))),))",
"[[[[[[[[<<<<((((((///]/]]]]{{{{{))))),>",
"[[[[[[[<<<<(((((((////]]]]{{{{{{))),,,>",
"[[[[[[[[<<<((((((////]]]]]{{{{{))))),>>",
"[[[[[[[<<<(((+++++++++++++[{{{{))),,>>>",
"[[[[[[<<<<(((+||||||||||||[{{{))))),>>>",
"[[[[[[<<<((((+||||||||||||[{{{))),,>>>=",
"[[[[[<<<<((((+||||||||||||[{{)))),,>>=>",
"[[[[[[<<(((((+||||||||||||[{{))))))>=>=",
"[[[[<<<<(((((+||||||||||||[{))))),>>>>>",
"[[[[[<<((((((+||||||||||||[{))))))>>>==",
"[[<<<<(((((((+||||||||||||[))))),>>>=>>",
"[[[<<<(((((((+||||||||||||[))),,,>>====",
"[[[<<<((((((/+||||||||||||[)))),>>>>===",
"[<<<<((((((//+||||||||||||[)),,>>>=====",
"[<<<<((((((//+||||||||||||[))))>>>>====",
"<<<<((((((///+||||||||||||[),,>>>======",
"<<<<((((((///+||||||||||||[)),>>>>>====",
"<<<((((((////+||||||||||||[))>>>>======",
"<<<((((((////+||||||||||||[),>>>>>=====",
"<<((((((/////+||||||||||||[,>>>>======*",
"<(((((((////]+||||||||||||[,>>>=>=====*",
"<(((((((////]+||||||||||||[)>>=======**",
"<((((((///]]]+||||||||||||[>>>>=====***",
"((((((/////]]+||||||||||||[>===>====***",
"((((((///]]]]+||||||||||||[>>>=====****",
"(((((/////]]{+||||||||||||<===>====****",
"(((((////]]]]+||||||||||||<>>>=====****",
"((((/////]]]{+||||||||||||<=======****&",
"((((///]]]]{]+||||||||||||<>>=====****&",
"(((///]/]]]]{+||||||||||||<======***&&&",
"(((////]]]{{]+||||||||||||<>=====***&&&",
"(((////]]{]{{+||||||||||||<=====****&&&",
"((///]]]]]{{{+||||||||||||<>===****&&&&",
"(////]]]]]{{{+||||||||||||<====****&&&%",
"////]]]]]{{{{+||||||||||||<===****&&&&&",
"////]]]]]{{{{+||||||||||||<===****&&&%&",
"///]]]]]]{{{{+||||||||||||<===***&&&&&&",
"////]]]{{{{{{+||||||||||||<==****&&&&%%",
"//]]]]{]{{{{{+||||||||||||<=****&&&&%&%",
"/]/]]]]{{{{{)+||||||||||||<=***&&&&&&%%",
"//]]]{{{{{{))+||||||||||||<****&&&&%%%%",
"/]]]]]{{{{{))+||||||||||||<****&&&&&&%%",
"/]]]]{{{{{{))+||||||||||||<***&&&&&%%%%",
"]]]]]{{{{{)))+||||||||||||<***&&&&&&%%%",
"]]]]{{{{{{)))+||||||||||||<**&&&&&%%%%%",
"]]]]{{{{{))))+||||||||||||<**&&&&&&%%%%",
"]{]]{{{{{))))+||||||||||||<*&&&%&&%%%%%",
"]]{{{{{{)))),+||||||||||||(*&&&&%%%%%%%",
"{{]{{{{{))),)+||||||||||||(&&&%%&%%%%%%",
"]]{{{{{))))),+||||||||||||(&&&&&%%%%%%#",
"{{{{{{)))),,)+||||||||||||(&&%%%%%%%%%#",
"]{{{{{))))),>+||||||||||||(&&&&&%%%%%##",
"{{{{{{))),,>>+||||||||||||(&&%%%%%%%##@",
"]{{{{))))),>>+||||||||||||(&&&&%%%%%###",
"{{{{)))),,>>>+||||||||||||(&%%%%%%%##@@",
"{{{{))))),>>>+||||||||||||(&&&%%%%%#@#@",
"{{{{))))))>>>+||||||||||||(&%%%%%%%##@@",
"{{{))))),>>>>+||||||||||||(%&%%%%%##@@@",
"{{{))))))>>>=+!!!!!!!!!!!!(%%%%%%%##@@@",
"{{))))),>>>=>+!!!!!!!!!!!!(&%%%%%##@@@@",
"{))))),)>>>>=+!!!!!!!!!!!!(%%%%%%##@@@@",
"{))))))>>>>==+!!!!!!!!!!!!(%%%%%###@@@@",
")))),,>>>====+!!!!!!!!!!!!(%%%%###@@@@@",
"))))))>>>>===+!!!!!!!!!!!!/%%%%###@@@@@",
"))),,>>>=====+!!!!!!!!!!!!/%%%###@@@@@@",
")))))>>>>====+!!!!!!!!!!!!/%%%###@@@@@@",
"))),>>>>=====+{{{{))))),)=&%%###@@@@@@@",
"))),>>>>>=====****&&&&&&%%%%%##@@@@@@@@",
")),>>>>======****&&&&&%%%%%%###@@@@@@@@",
",,,>>>=>=====***&&&&&%&%%%%%##@@@@@@@@@",
"),>>>>>=====****&&&&&&%%%%%###@@@@@@@@@",
" >>>>>=>===****&&&&&&%%%%%%###@@@@@@@@ ",
"  >==>>====****&&&%%%%%%%%###@@@@@@@@  "};
