/* XPM */
static char * usb_stick_disabled_xpm[] = {
"39 100 27 1",
" 	c None",
".	c #8B8B8B",
"+	c #979797",
"@	c #9C9C9C",
"#	c #AAAAAA",
"$	c #ADADAD",
"%	c #AFAFAF",
"&	c #B2B2B2",
"*	c #B3B3B3",
"=	c #B4B4B4",
"-	c #B7B7B7",
";	c #B8B8B8",
">	c #BCBCBC",
",	c #BDBDBD",
"'	c #BEBEBE",
")	c #C1C1C1",
"!	c #C3C3C3",
"~	c #C5C5C5",
"{	c #C6C6C6",
"]	c #C9C9C9",
"^	c #CACACA",
"/	c #CECECE",
"(	c #CFCFCF",
"_	c #D0D0D0",
":	c #D4D4D4",
"<	c #DCDCDC",
"[	c #E7E7E7",
"       ]%%%%%%%%%%%%%%%%%%%%%%%!       ",
"      [<%%%%%%%%%%%%%%%%%%%%%%%!<      ",
"      [[[[[[[[[[[[[<<<<<<<<<<<<<<:     ",
"     [[[[[[[[[[[<<<<<<<<<<<<<<::::     ",
"     [[[[[[[<<<<<<<<<<<<<<::::::::     ",
"     [[[[<<<<<<<<<<<<<<:::::::::::     ",
"     [[[<<<<<<<<<<<<:::::::::::///     ",
"     <[<<<<!%%%!:::::::!%%%'//////     ",
"     <[<<<......@:::::@.....@/////     ",
"     <[<</......./:::/@.@@@@@']]]]     ",
"     <[<:/......@/////@@@@@@@']]]]     ",
"     :[<:/@@@@@@@/////@@@@@@@!]]]]     ",
"     :[:::%@@@@@'/////!@@@@@%]]!!!     ",
"     :[:////!!!!/]]]]]]!!!!!!!!!!!     ",
"     /[://///]//]]]]]]]]]!!!!!!!!!     ",
"     /[:///]]]]]]]]]]]!!!!!!!!!'''     ",
"     ][/]]]]]]]]]]!!!!!!!!!''!''''     ",
"     ][/]]]]]]!!!!!!!!!!!'''''''''     ",
"     ][]]]]!!!!!!!!!''''''''''''''     ",
"     ][]!!!!!!!!!'''''''''''''''''     ",
"    ,'[]!!!!!!!'''''''''''''''''''=    ",
" {===;:!!!''''''''''''''''''''''';===' ",
" =====;''''''''''''''''''''''''';===== ",
"__=======;;;;;;;;;;;;;;;;;;;;;;======''",
"____{{{{{{{{,,,,,,,,,,,,,,,,,,,,=''''''",
"_________((((^^^^^^{{{{{~~~))))))''''''",
"_________((((^^^^^^{{{~~~))~)))))''''''",
"________((((^^^^^^{{{~{~~~~)))))''''''>",
"_______((((^^^^^^^{{{{~~~~))))))''''''>",
"________(((^^^^^^{{{{~~~~~)))))''''''>>",
"_______(((^^^+++++++++++++_))))'''''>>>",
"______((((^^^+]]]]]]]]]]]]_)))''''''>>>",
"______(((^^^^+]]]]]]]]]]]]_)))'''''>>>-",
"_____((((^^^^+]]]]]]]]]]]]_))''''''>>->",
"______((^^^^^+]]]]]]]]]]]]_))''''''>->-",
"____((((^^^^^+]]]]]]]]]]]]_)''''''>>>>>",
"_____((^^^^^^+]]]]]]]]]]]]_)''''''>>>--",
"__((((^^^^^^^+]]]]]]]]]]]]_''''''>>>->>",
"___(((^^^^^^^+]]]]]]]]]]]]_''''''>>----",
"___(((^^^^^^{+]]]]]]]]]]]]_'''''>>>>---",
"_((((^^^^^^{{+]]]]]]]]]]]]_''''>>>-----",
"_((((^^^^^^{{+]]]]]]]]]]]]_''''>>>>----",
"((((^^^^^^{{{+]]]]]]]]]]]]_'''>>>------",
"((((^^^^^^{{{+]]]]]]]]]]]]_'''>>>>>----",
"(((^^^^^^{{{{+]]]]]]]]]]]]_''>>>>------",
"(((^^^^^^{{{{+]]]]]]]]]]]]_''>>>>>-----",
"((^^^^^^{{{{{+]]]]]]]]]]]]_'>>>>------*",
"(^^^^^^^{{{{~+]]]]]]]]]]]]_'>>>->-----*",
"(^^^^^^^{{{{~+]]]]]]]]]]]]_'>>-------**",
"(^^^^^^{{{~~~+]]]]]]]]]]]]_>>>>-----***",
"^^^^^^{{{{{~~+]]]]]]]]]]]]_>--->----***",
"^^^^^^{{{~~~~+]]]]]]]]]]]]_>>>-----****",
"^^^^^{{{{{~~)+]]]]]]]]]]]](--->----****",
"^^^^^{{{{~~~~+]]]]]]]]]]]](>>>-----****",
"^^^^{{{{{~~~)+]]]]]]]]]]]](-------****&",
"^^^^{{{~~~~)~+]]]]]]]]]]]](>>-----****&",
"^^^{{{~{~~~~)+]]]]]]]]]]]](------***&&&",
"^^^{{{{~~~))~+]]]]]]]]]]]](>-----***&&&",
"^^^{{{{~~)~))+]]]]]]]]]]]](-----****&&&",
"^^{{{~~~~~)))+]]]]]]]]]]]](>---****&&&&",
"^{{{{~~~~~)))+]]]]]]]]]]]](----****&&&$",
"{{{{~~~~~))))+]]]]]]]]]]]](---****&&&&&",
"{{{{~~~~~))))+]]]]]]]]]]]](---****&&&$&",
"{{{~~~~~~))))+]]]]]]]]]]]](---***&&&&&&",
"{{{{~~~))))))+]]]]]]]]]]]](--****&&&&$$",
"{{~~~~)~)))))+]]]]]]]]]]]](-****&&&&$&$",
"{~{~~~~)))))'+]]]]]]]]]]]](-***&&&&&&$$",
"{{~~~))))))''+]]]]]]]]]]]](****&&&&$$$$",
"{~~~~~)))))''+]]]]]]]]]]]](****&&&&&&$$",
"{~~~~))))))''+]]]]]]]]]]]](***&&&&&$$$$",
"~~~~~)))))'''+]]]]]]]]]]]](***&&&&&&$$$",
"~~~~))))))'''+]]]]]]]]]]]](**&&&&&$$$$$",
"~~~~)))))''''+]]]]]]]]]]]](**&&&&&&$$$$",
"~)~~)))))''''+]]]]]]]]]]]](*&&&$&&$$$$$",
"~~))))))'''''+]]]]]]]]]]]]^*&&&&$$$$$$$",
"))~)))))'''''+]]]]]]]]]]]]^&&&$$&$$$$$$",
"~~)))))''''''+]]]]]]]]]]]]^&&&&&$$$$$$#",
"))))))'''''''+]]]]]]]]]]]]^&&$$$$$$$$$#",
"~)))))''''''>+]]]]]]]]]]]]^&&&&&$$$$$##",
"))))))'''''>>+]]]]]]]]]]]]^&&$$$$$$$###",
"~))))''''''>>+]]]]]]]]]]]]^&&&&$$$$$###",
"))))''''''>>>+]]]]]]]]]]]]^&$$$$$$$####",
"))))''''''>>>+]]]]]]]]]]]]^&&&$$$$$####",
"))))''''''>>>+]]]]]]]]]]]]^&$$$$$$$####",
")))''''''>>>>+]]]]]]]]]]]]^$&$$$$$#####",
")))''''''>>>-+]]]]]]]]]]]]^$$$$$$$#####",
"))''''''>>>->+]]]]]]]]]]]]^&$$$$$######",
")'''''''>>>>-+]]]]]]]]]]]]^$$$$$$######",
")''''''>>>>--+]]]]]]]]]]]]^$$$$$#######",
"''''''>>>----+]]]]]]]]]]]]^$$$$########",
"''''''>>>>---+]]]]]]]]]]]]{$$$$########",
"'''''>>>-----+]]]]]]]]]]]]{$$$#########",
"'''''>>>>----+]]]]]]]]]]]]{$$$#########",
"''''>>>>-----+))))'''''''-&$$##########",
"''''>>>>>-----****&&&&&&$$$$$##########",
"'''>>>>------****&&&&&$$$$$$###########",
"'''>>>->-----***&&&&&$&$$$$$###########",
"''>>>>>-----****&&&&&&$$$$$############",
" >>>>>->---****&&&&&&$$$$$$########### ",
"  >-->>----****&&&$$$$$$$$###########  "};
